<svg width="103" height="44" viewBox="0 0 103 44" fill="none" xmlns="http://www.w3.org/2000/svg">
<path d="M41.3335 43.5975L36.4605 35.5143L31.6883 43.5975H25.9751L33.3149 31.4224L25.834 20.1193H31.8026L36.5949 27.6659L41.1655 20.1193H46.8787L39.5188 31.7913L47.0803 43.5975H41.3335Z" fill="black"/>
<path d="M65.652 35.6149C65.652 40.7802 61.7536 44 56.6453 44C52.142 44 48.3494 41.5181 47.9814 36.118H52.8545C53.1905 38.4659 55.0725 39.4721 57.1226 39.4721C59.6767 39.4721 60.779 37.7615 60.779 35.5479C60.779 33.2336 59.065 31.7913 56.6789 31.7913C54.6961 31.7913 53.3855 32.7305 52.7805 33.7367H48.1226L49.7324 20.1193H65.0521L64.5413 24.6808H53.5837L53.1485 29.1869C53.1485 29.1869 54.2996 27.8336 57.788 27.8336C61.9889 27.8336 65.652 30.651 65.652 35.6149Z" fill="black"/>
<path d="M48.5571 17.1945C45.9609 7.09548 37.7255 0 20.6347 0H0L2.80114 18.9034C4.9083 35.9604 11.4449 41.4476 23.0124 43.4684C23.0662 43.4768 23.4325 43.5288 23.4375 43.1011C23.4392 42.9468 23.3417 42.8143 23.2073 42.7573C15.3886 39.472 14.4964 28.6972 12.8261 17.8854L11.5339 9.2689H23.3132C34.1733 9.2689 42.5582 9.09784 47.8681 17.4645C47.9471 17.5819 48.0698 17.6691 48.2159 17.6691C48.4209 17.6691 48.5739 17.5031 48.5739 17.2985C48.5705 17.2616 48.5655 17.2264 48.5571 17.1945Z" fill="#5FAF2D"/>
<path d="M70.8906 20.1193H74.2513V43.5975H70.8906V20.1193Z" fill="black"/>
<path d="M80.0918 20.1193H90.0059C92.4928 20.1193 94.6991 20.6106 96.6265 21.595C98.5538 22.5794 100.049 23.9596 101.113 25.7373C102.177 27.5149 102.709 29.5559 102.709 31.8584C102.709 34.161 102.177 36.2019 101.113 37.9795C100.049 39.7572 98.5538 41.139 96.6265 42.1218C94.6991 43.1062 92.4928 43.5975 90.0059 43.5975H80.0918V20.1193ZM89.8042 40.6795C91.7081 40.6795 93.3834 40.3106 94.8285 39.5727C96.2736 38.8348 97.3877 37.8001 98.1724 36.4702C98.9571 35.1403 99.3486 33.6025 99.3486 31.8584C99.3486 30.1143 98.9571 28.5765 98.1724 27.2466C97.3877 25.9167 96.2736 24.882 94.8285 24.1441C93.3834 23.4062 91.7081 23.0373 89.8042 23.0373H83.4525V40.6795H89.8042Z" fill="black"/>
</svg>
